<svg width="69" height="17" viewBox="0 0 69 17" fill="none" xmlns="http://www.w3.org/2000/svg">
<path d="M16.8071 17H12.6821L11.4868 13.2617H5.51025L4.32666 17H0.225098L6.34229 0.195312H10.8306L16.8071 17ZM10.6196 10.3555L8.81494 4.70703C8.68213 4.28516 8.58838 3.78125 8.53369 3.19531H8.43994C8.40088 3.6875 8.30322 4.17578 8.14697 4.66016L6.31885 10.3555H10.6196ZM27.4899 17H23.7048V0.195312H27.4899V17ZM46.1298 17H36.122V0.195312H39.9071V13.9297H46.1298V17ZM68.5196 17H64.3946L63.1993 13.2617H57.2228L56.0392 17H51.9376L58.0548 0.195312H62.5431L68.5196 17ZM62.3321 10.3555L60.5274 4.70703C60.3946 4.28516 60.3009 3.78125 60.2462 3.19531H60.1524C60.1134 3.6875 60.0157 4.17578 59.8595 4.66016L58.0313 10.3555H62.3321Z" fill="url(#paint0_linear_2703_3494)"/>
<defs>
<linearGradient id="paint0_linear_2703_3494" x1="34.6079" y1="-9" x2="34.6079" y2="23" gradientUnits="userSpaceOnUse">
<stop stop-color="white"/>
<stop offset="1" stop-color="#40A9E8"/>
</linearGradient>
</defs>
</svg>
