<svg width="69" height="17" viewBox="0 0 69 17" fill="none" xmlns="http://www.w3.org/2000/svg">
<path d="M16.6992 17H12.5742L11.3789 13.2617H5.40234L4.21875 17H0.117188L6.23438 0.195312H10.7227L16.6992 17ZM10.5117 10.3555L8.70703 4.70703C8.57422 4.28516 8.48047 3.78125 8.42578 3.19531H8.33203C8.29297 3.6875 8.19531 4.17578 8.03906 4.66016L6.21094 10.3555H10.5117ZM27.382 17H23.5969V0.195312H27.382V17ZM46.0219 17H36.0141V0.195312H39.7992V13.9297H46.0219V17ZM68.4117 17H64.2867L63.0914 13.2617H57.1148L55.9313 17H51.8297L57.9469 0.195312H62.4352L68.4117 17ZM62.2242 10.3555L60.4195 4.70703C60.2867 4.28516 60.193 3.78125 60.1383 3.19531H60.0445C60.0055 3.6875 59.9078 4.17578 59.7516 4.66016L57.9234 10.3555H62.2242Z" fill="url(#paint0_linear_1084_23829)"/>
<defs>
<linearGradient id="paint0_linear_1084_23829" x1="67.2979" y1="32.697" x2="4.85911" y2="17.3254" gradientUnits="userSpaceOnUse">
<stop stop-color="#024264" stop-opacity="0.7"/>
<stop offset="1" stop-color="#024264"/>
</linearGradient>
</defs>
</svg>
