<svg width="37" height="36" viewBox="0 0 37 36" fill="none" xmlns="http://www.w3.org/2000/svg">
<g clip-path="url(#clip0_2784_1275)">
<path d="M31.3335 28.438C31.0834 28.438 30.8812 28.2358 30.8812 27.9857V18.6861C30.8812 17.024 30.5539 15.406 29.903 13.88C29.2779 12.4054 28.3807 11.0817 27.2444 9.94173C26.1045 8.8018 24.7807 7.90824 23.3062 7.28311C21.7801 6.63593 20.1658 6.30498 18.5001 6.30498C16.838 6.30498 15.22 6.63225 13.694 7.28311C12.2194 7.90824 10.8956 8.80547 9.75569 9.94173C8.61576 11.0817 7.7222 12.4054 7.09708 13.88C6.44989 15.406 6.11895 17.0203 6.11895 18.6861V27.982C6.11895 28.2321 5.9167 28.4343 5.66665 28.4343C5.4166 28.4343 5.21436 28.2321 5.21436 27.982V18.6861C5.21436 16.899 5.56737 15.1633 6.26236 13.527C6.93528 11.9458 7.89503 10.5264 9.11586 9.30189C10.3367 8.08107 11.7598 7.12132 13.341 6.44839C14.9773 5.7534 16.7129 5.40039 18.5001 5.40039C20.2872 5.40039 22.0228 5.7534 23.6592 6.44839C25.2404 7.12132 26.6598 8.08107 27.8843 9.30189C29.1051 10.5227 30.0648 11.9458 30.7378 13.527C31.4328 15.1633 31.7858 16.899 31.7858 18.6861V27.982C31.7858 28.2358 31.5835 28.438 31.3335 28.438Z" fill="#40A9E8"/>
<path d="M3.30923 31.0635C2.0075 31.0635 0.952148 30.0081 0.952148 28.7064V22.5251C0.952148 21.2233 2.0075 20.168 3.30923 20.168C4.61096 20.168 5.66631 21.2233 5.66631 22.5251V28.7064C5.66631 30.0081 4.61096 31.0635 3.30923 31.0635Z" fill="#40A9E8"/>
<path d="M3.30938 31.5169C1.76128 31.5169 0.5 30.2556 0.5 28.7075V22.5262C0.5 20.9781 1.76128 19.7168 3.30938 19.7168C4.85748 19.7168 6.11875 20.9781 6.11875 22.5262V28.7075C6.12243 30.2556 4.86115 31.5169 3.30938 31.5169ZM3.30938 20.6214C2.26138 20.6214 1.40459 21.4745 1.40459 22.5262V28.7075C1.40459 29.7555 2.2577 30.6123 3.30938 30.6123C4.35738 30.6123 5.21416 29.7592 5.21416 28.7075V22.5262C5.21416 21.4782 4.36105 20.6214 3.30938 20.6214Z" fill="#40A9E8"/>
<path d="M33.6901 31.0635C32.3884 31.0635 31.333 30.0081 31.333 28.7064V22.5251C31.333 21.2233 32.3884 20.168 33.6901 20.168C34.9918 20.168 36.0472 21.2233 36.0472 22.5251V28.7064C36.0472 30.0081 34.9918 31.0635 33.6901 31.0635Z" fill="#40A9E8"/>
<path d="M33.6908 31.5153C32.1427 31.5153 30.8814 30.254 30.8814 28.7059V22.5245C30.8814 20.9764 32.1427 19.7151 33.6908 19.7151C35.2389 19.7151 36.5002 20.9764 36.5002 22.5245V28.7059C36.5002 30.254 35.2389 31.5153 33.6908 31.5153ZM33.6908 20.6197C32.6428 20.6197 31.786 21.4728 31.786 22.5245V28.7059C31.786 29.7539 32.6391 30.6107 33.6908 30.6107C34.7388 30.6107 35.5956 29.7576 35.5956 28.7059V22.5245C35.5919 21.4765 34.7388 20.6197 33.6908 20.6197ZM19.0225 27.8344C18.9894 27.8344 18.9563 27.8307 18.9232 27.827C18.6842 27.7866 18.4967 27.6064 18.4452 27.3674L16.9081 20.3072L14.2789 24.2528C14.1686 24.4183 13.9847 24.5176 13.7862 24.5176H10.3811C10.0538 24.5176 9.78906 24.2528 9.78906 23.9255C9.78906 23.5983 10.0538 23.3335 10.3811 23.3335H13.4699L16.6985 18.4906C16.8309 18.2921 17.0662 18.1928 17.3016 18.2369C17.5369 18.281 17.7208 18.4612 17.7723 18.6929L19.2946 25.6906L20.7508 23.3519C20.8574 23.1791 21.0486 23.0724 21.2546 23.0724H26.6233C26.9505 23.0724 27.2153 23.3372 27.2153 23.6645C27.2153 23.9917 26.9505 24.2565 26.6233 24.2565H21.5855L19.5336 27.5549C19.4196 27.7314 19.2247 27.8344 19.0225 27.8344Z" fill="#40A9E8"/>
</g>
<defs>
<clipPath id="clip0_2784_1275">
<rect width="36" height="36" fill="white" transform="translate(0.5)"/>
</clipPath>
</defs>
</svg>
