<svg width="315" height="315" viewBox="0 0 315 315" fill="none" xmlns="http://www.w3.org/2000/svg">
<g clip-path="url(#clip0_1725_2106)">
<path d="M204.598 114.864C168.475 77.758 175.577 46.9463 135.31 46.7801C72.3973 46.5176 32.1881 111.533 34.2269 186.001C35.8894 246.715 91.8719 263.275 143.141 263.275C161.221 263.275 178.319 259.221 193.506 252.005C203.434 247.289 214.322 244.737 225.391 244.688C225.607 244.688 225.823 244.685 226.039 244.682C263.521 244.177 293.39 214.99 293.39 178.885C293.39 159.06 285.988 139.087 269.885 129.22C245.723 114.418 215.393 125.953 204.598 114.864Z" fill="#E7EAEE"/>
<path d="M230.86 189.787L229.238 189.635C229.501 186.841 229.653 184.012 229.688 181.224L231.315 181.244C231.28 184.076 231.126 186.949 230.86 189.787ZM231.073 172.693L229.448 172.803C229.434 172.587 229.419 172.372 229.402 172.156C229.206 169.583 228.912 166.985 228.521 164.433L230.131 164.188C230.525 166.777 230.828 169.417 231.023 172.033C231.044 172.252 231.058 172.474 231.073 172.693ZM226.911 156.17C226.263 153.448 225.493 150.724 224.624 148.067L226.173 147.56C227.057 150.258 227.835 153.028 228.495 155.79L226.911 156.17ZM221.684 140.18C220.602 137.605 219.398 135.041 218.105 132.559L219.549 131.807C220.862 134.327 222.084 136.934 223.186 139.55L221.684 140.18ZM213.914 125.253C212.424 122.885 210.82 120.548 209.146 118.311L210.449 117.334C212.15 119.606 213.78 121.977 215.294 124.384L213.914 125.253ZM203.828 111.781C201.973 109.684 200.013 107.639 197.998 105.703L199.127 104.527C201.174 106.493 203.166 108.57 205.048 110.702L203.828 111.781ZM191.692 100.117C189.522 98.3496 187.256 96.6492 184.952 95.0654L185.873 93.7238C188.213 95.3308 190.517 97.0575 192.719 98.8542L191.692 100.117ZM177.82 90.5854C175.394 89.1971 172.88 87.8904 170.345 86.7063L171.036 85.2304C173.609 86.435 176.164 87.7621 178.631 89.1737L177.82 90.5854ZM162.578 83.4542C159.959 82.4829 157.264 81.6079 154.572 80.8525L155.012 79.2833C157.748 80.0504 160.487 80.94 163.147 81.9258L162.578 83.4542ZM146.376 78.9158C143.637 78.385 140.837 77.9592 138.052 77.65L138.233 76.0312C141.062 76.3462 143.906 76.7779 146.688 77.3175L146.376 78.9158Z" fill="#C1C1C1"/>
<path d="M257.679 280.735H268.366C284.063 280.735 296.788 268.01 296.788 252.312C296.788 236.615 284.063 223.889 268.366 223.889C264.574 223.889 260.954 224.633 257.65 225.98C257.308 210.58 244.72 198.199 229.236 198.199C213.754 198.199 201.163 210.58 200.821 225.98C197.514 224.633 193.897 223.889 190.106 223.889C174.408 223.889 161.683 236.615 161.683 252.312C161.683 268.01 174.408 280.735 190.106 280.735H200.789" fill="#4DB571"/>
<path d="M231.665 236.074V255.846H239.522L227.042 268.324L214.567 255.846H222.422V236.089" fill="white"/>
<path d="M101.596 93.4056H109.037C119.965 93.4056 128.826 84.5447 128.826 73.616C128.826 62.6872 119.965 53.8264 109.037 53.8264C106.397 53.8264 103.877 54.3456 101.576 55.2818C101.34 44.5602 92.5749 35.9414 81.7949 35.9414C71.0149 35.9414 62.2503 44.5631 62.0141 55.2818C59.7128 54.3456 57.1928 53.8264 54.5533 53.8264C43.6245 53.8264 34.7637 62.6872 34.7637 73.616C34.7637 84.5447 43.6245 93.4056 54.5533 93.4056H61.9937" fill="#4DB571"/>
<path d="M77.0498 84.764V70.9944H71.5781L80.2669 62.3086L88.9527 70.9944H83.484V84.7494" fill="white"/>
<path d="M185.635 93.0395C184.941 92.8645 184.232 93.2874 184.057 93.9816L177.486 120.007C177.311 120.701 177.734 121.41 178.428 121.585L195.668 125.937C196.362 126.112 197.071 125.689 197.246 124.995L203.558 99.9928L201.904 97.1462L185.635 93.0395Z" fill="#DADADA"/>
<path d="M191.749 94.1722C191.063 93.8309 190.229 94.1138 189.891 94.7992L177.145 120.492C176.804 121.178 177.086 122.012 177.772 122.35L194.794 130.794C195.479 131.135 196.313 130.852 196.651 130.167L208.896 105.483L207.811 102.138L191.749 94.1722Z" fill="#F2F2F2"/>
<path d="M197.051 107.381L199.408 102.566L197.36 101.562L195.001 106.378L191.506 109.143L197.01 111.835L197.051 107.381Z" fill="#C7D0CE"/>
<path d="M185.68 109.42L185.401 109.988L199.883 117.077L200.161 116.509L185.68 109.42Z" fill="#C7D0CE"/>
<path d="M184.783 111.26L184.504 111.828L198.986 118.917L199.264 118.349L184.783 111.26Z" fill="#C7D0CE"/>
<path d="M183.883 113.092L183.604 113.66L198.086 120.749L198.364 120.181L183.883 113.092Z" fill="#C7D0CE"/>
<path d="M182.986 114.928L182.708 115.496L197.189 122.585L197.467 122.017L182.986 114.928Z" fill="#C7D0CE"/>
<path d="M182.065 116.748L181.787 117.316L196.268 124.405L196.547 123.837L182.065 116.748Z" fill="#C7D0CE"/>
<path d="M181.168 118.584L180.89 119.152L195.371 126.241L195.649 125.673L181.168 118.584Z" fill="#C7D0CE"/>
<path d="M235.596 184.022H232.745C232.38 184.022 232.081 183.723 232.081 183.358C232.081 182.993 232.38 182.694 232.745 182.694H235.596C236.586 182.694 237.511 182.312 238.208 181.615C238.906 180.917 239.288 179.987 239.288 179.002C239.288 176.965 237.627 175.305 235.59 175.305H231.002C230.011 175.305 229.087 175.687 228.389 176.384C227.692 177.081 227.31 178.011 227.31 178.996C227.31 179.362 227.011 179.661 226.646 179.661C226.28 179.661 225.981 179.362 225.981 178.996C225.981 177.651 226.502 176.389 227.454 175.443C228.406 174.497 229.662 173.971 231.007 173.971H235.596C238.369 173.971 240.621 176.223 240.621 178.996C240.621 180.341 240.101 181.603 239.149 182.55C238.197 183.496 236.935 184.022 235.596 184.022Z" fill="#727272"/>
<path d="M226.546 184.022H221.957C219.184 184.022 216.932 181.769 216.932 178.996C216.932 177.651 217.452 176.389 218.404 175.443C219.356 174.497 220.612 173.971 221.957 173.971H224.808C225.173 173.971 225.472 174.27 225.472 174.635C225.472 175 225.173 175.299 224.808 175.299H221.957C220.967 175.299 220.042 175.681 219.345 176.378C218.647 177.076 218.266 178.006 218.266 178.991C218.266 181.028 219.926 182.688 221.963 182.688H226.551C227.542 182.688 228.467 182.306 229.164 181.609C229.861 180.912 230.243 179.982 230.243 178.996C230.243 178.631 230.542 178.332 230.907 178.332C231.273 178.332 231.572 178.631 231.572 178.996C231.572 180.341 231.051 181.603 230.099 182.55C229.147 183.496 227.885 184.022 226.546 184.022Z" fill="#727272"/>
<path d="M103.615 157.83H36.3155C35.5892 157.83 35.003 157.244 35.003 156.518C35.003 155.791 35.5892 155.205 36.3155 155.205H103.618C104.344 155.205 104.93 155.791 104.93 156.518C104.93 157.244 104.341 157.83 103.615 157.83ZM122.672 157.83H114.972C114.246 157.83 113.66 157.244 113.66 156.518C113.66 155.791 114.246 155.205 114.972 155.205H122.672C123.398 155.205 123.985 155.791 123.985 156.518C123.985 157.244 123.395 157.83 122.672 157.83ZM103.615 173.175H95.9147C95.1884 173.175 94.6022 172.588 94.6022 171.862C94.6022 171.136 95.1884 170.55 95.9147 170.55H103.615C104.341 170.55 104.927 171.136 104.927 171.862C104.927 172.588 104.341 173.175 103.615 173.175ZM88.8009 173.175H20.2505C19.5242 173.175 18.938 172.588 18.938 171.862C18.938 171.136 19.5242 170.55 20.2505 170.55H88.798C89.5242 170.55 90.1105 171.136 90.1105 171.862C90.1105 172.588 89.5242 173.175 88.8009 173.175Z" fill="#40A9E8"/>
<path d="M229.831 136.691L221.689 133.854C218.153 132.621 215.31 133.995 214.077 137.532L211.244 145.664C210.008 149.21 211.382 152.053 214.918 153.286L223.051 156.119C226.587 157.352 229.43 155.978 230.663 152.441L233.5 144.299C234.742 140.766 233.368 137.923 229.831 136.691Z" fill="#5BC4F7"/>
<path d="M219.557 144.006L220.058 142.568C220.705 140.712 222.277 140.421 223.558 141.903L224.551 143.055L225.545 144.208C226.826 145.689 226.298 147.205 224.373 147.569L222.879 147.855L221.385 148.141C219.46 148.505 218.412 147.29 219.056 145.444L219.557 144.006Z" fill="#6886A1"/>
<path d="M154.007 66.1204C148.147 68.1206 145.001 74.5161 147.004 80.3826L150.851 91.653L153.416 90.7773L149.569 79.5069C148.05 75.0562 150.432 70.205 154.882 68.6857C159.333 67.1664 164.184 69.5485 165.703 73.9992L169.551 85.2696L172.116 84.3939L168.269 73.1235C166.269 67.264 159.866 64.1202 154.007 66.1204Z" fill="#6886A1"/>
<path d="M144.98 88.7585C145.724 90.9383 147.932 92.2035 150.131 91.8363L147.171 83.1662C146.299 83.6362 145.622 84.3601 145.207 85.2063C144.681 86.278 144.563 87.5389 144.98 88.7585Z" fill="#5BC4F7"/>
<path d="M172.64 75.8404C171.787 75.4273 170.806 75.2611 169.831 75.4297L172.791 84.0998C174.755 83.0457 175.729 80.6943 174.985 78.5145C174.575 77.2926 173.712 76.3666 172.64 75.8404Z" fill="#5BC4F7"/>
<path d="M157.934 77.4183C154.493 78.5931 152.662 82.3325 153.835 85.7669C155.009 89.2083 158.749 91.0386 162.183 89.8663C165.618 88.6939 167.455 84.9521 166.283 81.5177C165.11 78.0833 161.375 76.2436 157.934 77.4183ZM165.435 83.4583C165.388 83.5524 165.309 83.6185 165.225 83.6472C165.141 83.6759 165.031 83.6744 164.944 83.6258L161.982 82.1717L160.718 84.7477C160.625 84.9357 160.408 85.0099 160.22 84.9176L157.644 83.6527L156.19 86.6142C156.097 86.8022 155.88 86.8764 155.692 86.784C155.504 86.6917 155.43 86.4744 155.522 86.2864L157.138 82.9959C157.23 82.8078 157.448 82.7337 157.636 82.826L160.212 84.0909L161.477 81.5149C161.569 81.3268 161.786 81.2527 161.974 81.345L165.265 82.9607C165.446 83.0554 165.52 83.2727 165.435 83.4583Z" fill="#5BC4F7"/>
</g>
<defs>
<clipPath id="clip0_1725_2106">
<rect width="315" height="315" fill="white"/>
</clipPath>
</defs>
</svg>
