<svg width="328" height="297" viewBox="0 0 328 297" fill="none" xmlns="http://www.w3.org/2000/svg">
<path d="M27.2366 231.52C27.2366 231.52 -3.94538 211.056 0.41881 165.599C5.2506 115.264 25.082 109.763 40.0908 102.373C57.1258 93.984 71.7037 92.5354 91.2417 51.0756C117.033 -3.66023 163.443 0.0529983 181.01 0.0529983C240.66 0.0529983 239.945 59.1988 268.743 88.6388C295.855 116.346 346.604 206.795 279.5 260C244.559 287.698 83.1093 266.122 27.2366 231.52Z" fill="#317193"/>
<path d="M36.5793 50.2787C36.1025 48.3992 32.5085 47.5832 27.6859 47.9774C26.7415 48.0508 25.8613 47.5282 25.4854 46.6663C23.56 42.2288 21.1304 39.4507 19.2509 39.9183C17.3713 40.3951 16.5553 43.9891 16.9496 48.8117C17.0229 49.7561 16.5003 50.6363 15.6385 51.0122C11.2009 52.9376 8.4229 55.3672 8.89049 57.2467C9.36725 59.1263 12.9613 59.9423 17.7839 59.548C18.7283 59.4747 19.6084 59.9973 19.9843 60.8591C21.9097 65.2967 24.3394 68.0747 26.2189 67.6071C28.0984 67.1304 28.9144 63.5363 28.5202 58.7137C28.4468 57.7694 28.9694 56.8892 29.8313 56.5133C34.2688 54.5787 37.056 52.1582 36.5793 50.2787Z" fill="#E1E1E1"/>
<path d="M327.197 185.425C327.509 183.518 324.529 181.326 319.954 179.777C319.065 179.474 318.46 178.64 318.46 177.696C318.45 172.864 317.341 169.343 315.425 169.022C313.518 168.711 311.326 171.69 309.777 176.265C309.474 177.155 308.64 177.76 307.696 177.76C302.864 177.769 299.343 178.878 299.022 180.795C298.711 182.702 301.69 184.893 306.265 186.442C307.155 186.745 307.76 187.579 307.76 188.524C307.769 193.355 308.878 196.876 310.795 197.197C312.702 197.509 314.893 194.529 316.442 189.954C316.745 189.065 317.579 188.459 318.524 188.459C323.365 188.45 326.885 187.341 327.197 185.425Z" fill="#EDB82C"/>
<path d="M15.9958 230.712C22.2785 230.712 27.3715 225.619 27.3715 219.337C27.3715 213.054 22.2785 207.961 15.9958 207.961C9.7132 207.961 4.62012 213.054 4.62012 219.337C4.62012 225.619 9.7132 230.712 15.9958 230.712Z" fill="#E1E1E1"/>
<g filter="url(#filter0_d_1057_23842)">
<path d="M253.068 130.113L232.213 59.7917L194.001 67.5449L207.266 132.923L253.068 130.113Z" fill="white"/>
<path d="M283.852 117.377L275.008 73.7918L258.179 70.7237L248.794 56.4209L232.213 59.7852L246.841 131.37L283.852 117.377Z" fill="#E8E6E6"/>
<path d="M253.216 78.2224L248.794 56.4297L275.008 73.8006L253.216 78.2224Z" fill="white"/>
<path d="M283.852 117.379L207.266 132.918L214.215 167.164L290.8 151.624L283.852 117.379Z" fill="#FC0F1A"/>
<path d="M233.23 137.772C237.019 137.003 239.577 138.423 240.247 141.726C240.951 145.197 239.179 147.651 235.39 148.419L232.702 148.965L233.548 153.135L229.78 153.899L226.773 139.082L233.23 137.772ZM232.1 146.001L234.598 145.495C236.25 145.159 237.034 144.141 236.716 142.574C236.403 141.029 235.291 140.439 233.64 140.774L231.143 141.281L232.1 146.001Z" fill="white"/>
<path d="M248.07 134.762C252.727 133.817 256.554 136.17 257.448 140.573C258.337 144.955 255.691 148.643 250.928 149.609L244.705 150.872L241.698 136.055L248.07 134.762ZM247.863 147.102L250.551 146.556C252.859 146.088 254.149 143.975 253.62 141.371C253.088 138.747 250.987 137.299 248.595 137.785L246.076 138.296L247.863 147.102L247.863 147.102Z" fill="white"/>
<path d="M262.834 134.851L263.53 138.28L270.177 136.932L270.778 139.895L264.132 141.244L265.24 146.705L261.472 147.47L258.465 132.652L269.451 130.423L270.053 133.387L262.835 134.851L262.834 134.851Z" fill="white"/>
</g>
<g filter="url(#filter1_d_1057_23842)">
<path d="M160.24 245.815C157.021 244.835 154.164 242.921 152.032 240.318C149.899 237.714 148.587 234.536 148.261 231.186C147.934 227.837 148.609 224.465 150.198 221.499C151.788 218.532 154.221 216.104 157.191 214.52C160.161 212.937 163.534 212.27 166.883 212.603C170.232 212.937 173.407 214.256 176.006 216.393C178.605 218.531 180.512 221.392 181.486 224.614C182.46 227.835 182.456 231.273 181.476 234.493C180.157 238.807 177.18 242.423 173.199 244.545C169.218 246.668 164.558 247.124 160.24 245.815ZM168.171 219.769C166.239 219.181 164.176 219.179 162.243 219.763C160.31 220.347 158.594 221.491 157.311 223.051C156.029 224.61 155.237 226.515 155.037 228.525C154.837 230.534 155.238 232.558 156.188 234.34C157.138 236.122 158.595 237.582 160.375 238.535C162.155 239.489 164.177 239.894 166.187 239.698C168.197 239.502 170.104 238.715 171.666 237.435C173.228 236.156 174.376 234.442 174.964 232.51C175.75 229.92 175.476 227.123 174.202 224.735C172.929 222.346 170.76 220.56 168.171 219.769Z" fill="#E6E6E6"/>
<path d="M174.545 281.645C173.822 281.426 173.193 280.973 172.756 280.357C172.319 279.741 172.1 278.997 172.132 278.243C172.164 277.488 172.446 276.766 172.934 276.19C173.422 275.613 174.087 275.216 174.826 275.059C184.918 272.922 194.014 267.491 200.682 259.619C207.349 251.748 211.211 241.883 211.659 231.576C212.108 221.27 209.117 211.107 203.157 202.686C197.198 194.266 188.608 188.065 178.74 185.06C168.871 182.055 158.283 182.417 148.642 186.087C139.001 189.758 130.854 196.529 125.482 205.336C120.111 214.144 117.819 224.487 118.969 234.739C120.119 244.99 124.644 254.569 131.833 261.968C132.149 262.288 132.4 262.667 132.569 263.084C132.738 263.501 132.823 263.947 132.818 264.397C132.814 264.847 132.72 265.292 132.543 265.706C132.365 266.119 132.108 266.494 131.784 266.807C131.461 267.12 131.079 267.366 130.66 267.531C130.242 267.696 129.794 267.775 129.344 267.766C128.894 267.757 128.451 267.658 128.039 267.476C127.627 267.294 127.256 267.032 126.946 266.706C118.707 258.224 113.521 247.243 112.204 235.492C110.888 223.74 113.515 211.884 119.673 201.789C125.831 191.694 135.171 183.932 146.222 179.725C157.274 175.518 169.41 175.104 180.722 178.548C192.035 181.993 201.881 189.1 208.713 198.753C215.544 208.405 218.973 220.054 218.46 231.868C217.947 243.682 213.521 254.99 205.879 264.014C198.236 273.038 187.811 279.265 176.242 281.716C175.68 281.836 175.095 281.812 174.545 281.645Z" fill="#E6E6E6"/>
<path d="M171.52 263.692C170.8 263.477 170.172 263.03 169.733 262.421C169.294 261.811 169.069 261.074 169.093 260.323C169.117 259.572 169.389 258.851 169.865 258.271C170.342 257.69 170.998 257.284 171.73 257.115C177.795 255.681 183.22 252.288 187.164 247.462C191.108 242.635 193.353 236.644 193.55 230.414C193.748 224.184 191.887 218.062 188.257 212.996C184.626 207.929 179.427 204.2 173.465 202.384C167.502 200.569 161.107 200.768 155.269 202.951C149.431 205.135 144.474 209.181 141.166 214.464C137.858 219.747 136.383 225.972 136.968 232.178C137.553 238.383 140.166 244.223 144.403 248.795C145.019 249.456 145.347 250.334 145.315 251.236C145.283 252.139 144.894 252.992 144.233 253.607C143.572 254.223 142.694 254.551 141.791 254.519C140.889 254.487 140.036 254.098 139.42 253.437C134.165 247.769 130.924 240.527 130.197 232.832C129.471 225.137 131.3 217.416 135.402 210.865C139.504 204.314 145.65 199.296 152.889 196.588C160.129 193.88 168.059 193.633 175.453 195.884C182.847 198.136 189.294 202.761 193.796 209.044C198.298 215.327 200.605 222.918 200.359 230.644C200.114 238.369 197.33 245.799 192.438 251.783C187.547 257.768 180.82 261.974 173.297 263.752C172.71 263.89 172.097 263.869 171.52 263.692Z" fill="#E6E6E6"/>
<path d="M162.689 284.511L136.644 276.58C136.088 276.411 135.586 276.103 135.183 275.686C134.78 275.268 134.491 274.754 134.343 274.193C134.195 273.632 134.193 273.042 134.337 272.48C134.481 271.918 134.766 271.402 135.166 270.981L156.119 248.901C156.554 248.442 157.109 248.113 157.72 247.952C158.331 247.79 158.976 247.802 159.58 247.986C160.185 248.17 160.727 248.52 161.145 248.994C161.562 249.469 161.839 250.051 161.945 250.674L167.037 280.686C167.134 281.258 167.083 281.845 166.89 282.392C166.696 282.939 166.366 283.427 165.93 283.811C165.494 284.194 164.968 284.459 164.401 284.582C163.834 284.705 163.245 284.68 162.689 284.511ZM143.894 271.673L159.404 276.395L156.372 258.524L143.894 271.673Z" fill="#E6E6E6"/>
<path d="M211.956 247.333C211.093 247.07 210.369 246.475 209.945 245.678C209.52 244.882 209.429 243.949 209.692 243.086C213.285 231.285 212.043 218.54 206.24 207.655C200.436 196.769 190.546 188.636 178.745 185.042C166.944 181.449 154.199 182.691 143.314 188.495C132.429 194.298 124.295 204.188 120.702 215.989C120.439 216.853 119.844 217.576 119.047 218.001C118.251 218.426 117.318 218.517 116.455 218.254C115.591 217.991 114.868 217.396 114.443 216.599C114.018 215.803 113.927 214.87 114.19 214.007C118.309 200.479 127.634 189.141 140.112 182.488C152.59 175.835 167.2 174.412 180.728 178.531C194.256 182.65 205.593 191.974 212.246 204.452C218.899 216.931 220.323 231.541 216.203 245.068C215.941 245.932 215.345 246.656 214.549 247.08C213.752 247.505 212.82 247.596 211.956 247.333Z" fill="#E6E6E6"/>
<path d="M194.593 242.043C193.729 241.78 193.006 241.185 192.581 240.388C192.156 239.592 192.065 238.659 192.328 237.796C194.519 230.6 193.762 222.829 190.223 216.192C186.684 209.554 180.654 204.595 173.458 202.404C166.263 200.213 158.491 200.97 151.854 204.509C145.217 208.048 140.257 214.078 138.066 221.274C137.803 222.137 137.208 222.861 136.411 223.286C135.615 223.71 134.682 223.801 133.819 223.538C132.955 223.275 132.232 222.68 131.807 221.884C131.383 221.087 131.292 220.155 131.555 219.291C134.271 210.368 140.421 202.891 148.652 198.502C156.882 194.114 166.518 193.175 175.441 195.892C184.364 198.609 191.841 204.759 196.23 212.989C200.618 221.22 201.557 230.856 198.84 239.779C198.577 240.642 197.982 241.366 197.185 241.79C196.389 242.215 195.456 242.306 194.593 242.043Z" fill="#E6E6E6"/>
</g>
<g filter="url(#filter2_d_1057_23842)">
<path d="M28.4931 91.1487L97.2049 70.8902C104.076 68.8643 111.355 72.8287 113.381 79.6999L128.115 129.672C130.141 136.543 126.176 143.823 119.305 145.849L50.5932 166.107C43.722 168.133 36.4426 164.169 34.4168 157.297L19.6834 107.325C17.6575 100.454 21.6219 93.1745 28.4931 91.1487Z" fill="#3EA142"/>
<path d="M162.11 129.835L125.352 120.304L116.144 89.0716L141.851 61.1236L162.11 129.835Z" fill="#277D2B"/>
</g>
<defs>
<filter id="filter0_d_1057_23842" x="190.001" y="56.4199" width="104.799" height="118.744" filterUnits="userSpaceOnUse" color-interpolation-filters="sRGB">
<feFlood flood-opacity="0" result="BackgroundImageFix"/>
<feColorMatrix in="SourceAlpha" type="matrix" values="0 0 0 0 0 0 0 0 0 0 0 0 0 0 0 0 0 0 127 0" result="hardAlpha"/>
<feOffset dy="4"/>
<feGaussianBlur stdDeviation="2"/>
<feComposite in2="hardAlpha" operator="out"/>
<feColorMatrix type="matrix" values="0 0 0 0 0 0 0 0 0 0 0 0 0 0 0 0 0 0 0.1 0"/>
<feBlend mode="normal" in2="BackgroundImageFix" result="effect1_dropShadow_1057_23842"/>
<feBlend mode="normal" in="SourceGraphic" in2="effect1_dropShadow_1057_23842" result="shape"/>
</filter>
<filter id="filter1_d_1057_23842" x="107.873" y="176.219" width="114.643" height="116.439" filterUnits="userSpaceOnUse" color-interpolation-filters="sRGB">
<feFlood flood-opacity="0" result="BackgroundImageFix"/>
<feColorMatrix in="SourceAlpha" type="matrix" values="0 0 0 0 0 0 0 0 0 0 0 0 0 0 0 0 0 0 127 0" result="hardAlpha"/>
<feOffset dy="4"/>
<feGaussianBlur stdDeviation="2"/>
<feComposite in2="hardAlpha" operator="out"/>
<feColorMatrix type="matrix" values="0 0 0 0 0 0 0 0 0 0 0 0 0 0 0 0 0 0 0.1 0"/>
<feBlend mode="normal" in2="BackgroundImageFix" result="effect1_dropShadow_1057_23842"/>
<feBlend mode="normal" in="SourceGraphic" in2="effect1_dropShadow_1057_23842" result="shape"/>
</filter>
<filter id="filter2_d_1057_23842" x="15.1533" y="61.123" width="150.957" height="113.514" filterUnits="userSpaceOnUse" color-interpolation-filters="sRGB">
<feFlood flood-opacity="0" result="BackgroundImageFix"/>
<feColorMatrix in="SourceAlpha" type="matrix" values="0 0 0 0 0 0 0 0 0 0 0 0 0 0 0 0 0 0 127 0" result="hardAlpha"/>
<feOffset dy="4"/>
<feGaussianBlur stdDeviation="2"/>
<feComposite in2="hardAlpha" operator="out"/>
<feColorMatrix type="matrix" values="0 0 0 0 0 0 0 0 0 0 0 0 0 0 0 0 0 0 0.1 0"/>
<feBlend mode="normal" in2="BackgroundImageFix" result="effect1_dropShadow_1057_23842"/>
<feBlend mode="normal" in="SourceGraphic" in2="effect1_dropShadow_1057_23842" result="shape"/>
</filter>
</defs>
</svg>
