<svg width="37" height="36" viewBox="0 0 37 36" fill="none" xmlns="http://www.w3.org/2000/svg">
<g clip-path="url(#clip0_2784_1268)">
<path d="M2.69508 10.7139V33.471H25.4522V10.7139H2.69508ZM1.43079 8.18532H26.7165C27.0518 8.18532 27.3734 8.31853 27.6105 8.55562C27.8476 8.79272 27.9808 9.1143 27.9808 9.44961V34.7353C27.9808 35.0706 27.8476 35.3922 27.6105 35.6293C27.3734 35.8664 27.0518 35.9996 26.7165 35.9996H1.43079C1.09548 35.9996 0.773904 35.8664 0.536805 35.6293C0.299705 35.3922 0.166504 35.0706 0.166504 34.7353V9.44961C0.166504 9.1143 0.299705 8.79272 0.536805 8.55562C0.773904 8.31853 1.09548 8.18532 1.43079 8.18532ZM35.5665 1.8639V29.6782C35.5665 30.0135 35.4333 30.3351 35.1962 30.5722C34.9591 30.8093 34.6375 30.9425 34.3022 30.9425H30.5094V28.4139H33.0379V3.12818H12.8094V5.65675H10.2808V1.8639C10.2808 1.52859 10.414 1.20701 10.6511 0.96991C10.8882 0.73281 11.2098 0.599609 11.5451 0.599609H34.3022C34.6375 0.599609 34.9591 0.73281 35.1962 0.96991C35.4333 1.20701 35.5665 1.52859 35.5665 1.8639ZM7.75222 24.621H20.3951V27.1496H7.75222V24.621ZM7.75222 17.0353H20.3951V19.5639H7.75222V17.0353Z" fill="#40A9E8"/>
</g>
<defs>
<clipPath id="clip0_2784_1268">
<rect width="36" height="36" fill="white" transform="translate(0.166504)"/>
</clipPath>
</defs>
</svg>
