<svg width="36" height="37" viewBox="0 0 36 37" fill="none" xmlns="http://www.w3.org/2000/svg">
<g id="Frame">
<g id="SVGRepo_iconCarrier">
<path id="Vector" fill-rule="evenodd" clip-rule="evenodd" d="M19.08 9.08984H28.08L29.205 10.2148V14.7823H30.375L31.5 15.9073V18.0898L30.375 19.2148H29.205V25.9648L28.08 27.0898H21.06L15.435 33.2998L13.5 32.4898V27.0898H7.875L6.75 25.6498V19.2148H5.625L4.5 18.0898V15.9073L5.625 14.7823H6.75V9.89984L7.9425 9.08984H16.9425V6.52484C16.5899 6.3372 16.2935 6.05906 16.0839 5.71899C15.8744 5.37893 15.7591 4.9892 15.75 4.58984C15.75 3.99311 15.9871 3.42081 16.409 2.99885C16.831 2.5769 17.4033 2.33984 18 2.33984C18.5967 2.33984 19.169 2.5769 19.591 2.99885C20.0129 3.42081 20.25 3.99311 20.25 4.58984C20.2315 4.97533 20.1142 5.34959 19.9093 5.67664C19.7044 6.00369 19.4188 6.27254 19.08 6.45734V9.08984ZM27 18.0898V11.3398H9V24.5248L14.625 24.8398H15.75V29.7673L19.8 25.1773L20.5875 24.8398H27V18.0898ZM22.23 19.2373C21.3875 20.0819 20.3158 20.6608 19.1475 20.9023V20.8798C18.1729 21.0663 17.1676 21.0121 16.2187 20.7219C15.2698 20.4318 14.4061 19.9145 13.7025 19.2148L12.1275 20.8123C12.8925 21.5773 13.8038 22.1803 14.805 22.5898C15.8175 23.0128 16.902 23.2333 18 23.2423C20.1752 23.2291 22.2588 22.3649 23.805 20.8348L22.23 19.2373ZM14.6025 14.7148H12.3525V16.9648H14.6025V14.7148ZM21.3525 14.7148H23.6025V16.9648H21.3525V14.7148Z" fill="white"/>
</g>
</g>
</svg>
