<svg width="25" height="25" viewBox="0 0 25 25" fill="none" xmlns="http://www.w3.org/2000/svg">
<g id="Frame">
<g id="SVGRepo_iconCarrier">
<path id="Vector" d="M11.914 5.65154C12.0396 5.65154 12.1024 5.57828 12.1338 5.46319C12.4581 3.71583 12.4372 3.674 14.2578 3.32868C14.3833 3.30779 14.4566 3.23453 14.4566 3.10895C14.4566 2.98342 14.3833 2.91016 14.2578 2.88922C12.4476 2.52306 12.5 2.48118 12.1338 0.754754C12.1024 0.639665 12.0396 0.566406 11.914 0.566406C11.7885 0.566406 11.7257 0.639665 11.6943 0.754754C11.3281 2.48118 11.3909 2.52306 9.57028 2.88922C9.45519 2.91016 9.37149 2.98342 9.37149 3.10895C9.37149 3.23453 9.45519 3.30779 9.57028 3.32868C11.3909 3.69493 11.3699 3.71583 11.6943 5.46319C11.7257 5.57828 11.7885 5.65154 11.914 5.65154ZM6.84988 12.8502C7.04868 12.8502 7.1847 12.7246 7.2056 12.5363C7.58229 9.74261 7.67644 9.74261 10.5643 9.1881C10.7526 9.15667 10.8886 9.03114 10.8886 8.83234C10.8886 8.64399 10.7526 8.50797 10.5643 8.47658C7.67644 8.07899 7.5718 7.9848 7.2056 5.13882C7.1847 4.95051 7.04868 4.81449 6.84988 4.81449C6.66153 4.81449 6.52551 4.95051 6.50457 5.14931C6.1593 7.95341 6.01278 7.94297 3.14591 8.47658C2.95756 8.51846 2.82153 8.64399 2.82153 8.83234C2.82153 9.04158 2.95756 9.15667 3.18774 9.1881C6.03372 9.64846 6.1593 9.72172 6.50457 12.5154C6.52551 12.7246 6.66153 12.8502 6.84988 12.8502ZM13.9439 24.4329C14.216 24.4329 14.4147 24.2341 14.467 23.9516C15.2099 18.2178 16.0156 17.3494 21.6866 16.7215C21.9796 16.6902 22.1784 16.4704 22.1784 16.1984C22.1784 15.9264 21.9796 15.7171 21.6866 15.6752C16.0156 15.0474 15.2099 14.179 14.467 8.4452C14.4147 8.1627 14.216 7.97435 13.9439 7.97435C13.6718 7.97435 13.4731 8.1627 13.4312 8.4452C12.6883 14.179 11.8722 15.0474 6.21158 15.6752C5.90818 15.7171 5.70939 15.9264 5.70939 16.1984C5.70939 16.4704 5.90818 16.6902 6.21158 16.7215C11.8617 17.4644 12.6464 18.2283 13.4312 23.9516C13.4731 24.2341 13.6718 24.4329 13.9439 24.4329Z" fill="white"/>
</g>
</g>
</svg>
