<svg width="37" height="36" viewBox="0 0 37 36" fill="none" xmlns="http://www.w3.org/2000/svg">
<g clip-path="url(#clip0_2784_1286)">
<path d="M26.2999 14.0663L31.1099 11.1803C32.5903 10.2919 33.3307 9.84778 33.9398 9.90456C34.4708 9.95407 34.9554 10.2284 35.2711 10.6584C35.6332 11.1514 35.6332 12.0147 35.6332 13.7413V21.8579C35.6332 23.5844 35.6332 24.4477 35.2711 24.9409C34.9554 25.3708 34.4708 25.6452 33.9398 25.6947C33.3307 25.7514 32.5903 25.3073 31.1099 24.419L26.2999 21.5329M8.00654 28.9996H20.3265C22.4174 28.9996 23.4629 28.9996 24.2615 28.5927C24.9639 28.2348 25.5351 27.6636 25.8929 26.9612C26.2999 26.1626 26.2999 25.1171 26.2999 23.0263V12.5729C26.2999 10.4821 26.2999 9.43664 25.8929 8.63805C25.5351 7.93556 24.9639 7.36444 24.2615 7.00652C23.4629 6.59961 22.4174 6.59961 20.3265 6.59961H8.00654C5.91568 6.59961 4.87024 6.59961 4.07164 7.00652C3.36916 7.36444 2.79803 7.93556 2.44012 8.63805C2.0332 9.43664 2.0332 10.4821 2.0332 12.5729V23.0263C2.0332 25.1171 2.0332 26.1626 2.44012 26.9612C2.79803 27.6636 3.36916 28.2348 4.07164 28.5927C4.87024 28.9996 5.91566 28.9996 8.00654 28.9996Z" stroke="#40A9E8" stroke-width="2" stroke-linecap="round" stroke-linejoin="round"/>
</g>
<defs>
<clipPath id="clip0_2784_1286">
<rect width="36" height="36" fill="white" transform="translate(0.833008)"/>
</clipPath>
</defs>
</svg>
